<mxfile host="app.diagrams.net" modified="2023-09-09T19:00:58.704Z" agent="Mozilla/5.0 (Windows NT 10.0; Win64; x64) AppleWebKit/537.36 (KHTML, like Gecko) Chrome/116.0.0.0 Safari/537.36" etag="8m1mAGfymNFdjAW2xX1O" version="21.7.4" type="github">
  <diagram name="Página-1" id="EvhnHuMoSTZH7G8EqvOe">
    <mxGraphModel dx="869" dy="474" grid="1" gridSize="10" guides="1" tooltips="1" connect="1" arrows="1" fold="1" page="1" pageScale="1" pageWidth="827" pageHeight="1169" math="0" shadow="0">
      <root>
        <mxCell id="0" />
        <mxCell id="1" parent="0" />
        <mxCell id="tKD_pDYRvJkfFaJFPjUY-1" value="&lt;div style=&quot;text-align: justify;&quot;&gt;&lt;/div&gt;" style="rounded=0;whiteSpace=wrap;html=1;" vertex="1" parent="1">
          <mxGeometry x="200" y="40" width="440" height="550" as="geometry" />
        </mxCell>
        <mxCell id="tKD_pDYRvJkfFaJFPjUY-12" style="edgeStyle=orthogonalEdgeStyle;rounded=0;orthogonalLoop=1;jettySize=auto;html=1;exitX=1;exitY=0.3333333333333333;exitDx=0;exitDy=0;exitPerimeter=0;endArrow=none;endFill=0;" edge="1" parent="1" source="tKD_pDYRvJkfFaJFPjUY-2" target="tKD_pDYRvJkfFaJFPjUY-5">
          <mxGeometry relative="1" as="geometry">
            <Array as="points">
              <mxPoint x="130" y="140" />
            </Array>
          </mxGeometry>
        </mxCell>
        <mxCell id="tKD_pDYRvJkfFaJFPjUY-13" style="edgeStyle=orthogonalEdgeStyle;rounded=0;orthogonalLoop=1;jettySize=auto;html=1;exitX=1;exitY=0.3333333333333333;exitDx=0;exitDy=0;exitPerimeter=0;endArrow=none;endFill=0;" edge="1" parent="1" source="tKD_pDYRvJkfFaJFPjUY-2" target="tKD_pDYRvJkfFaJFPjUY-7">
          <mxGeometry relative="1" as="geometry">
            <Array as="points">
              <mxPoint x="130" y="235" />
            </Array>
          </mxGeometry>
        </mxCell>
        <mxCell id="tKD_pDYRvJkfFaJFPjUY-14" style="edgeStyle=orthogonalEdgeStyle;rounded=0;orthogonalLoop=1;jettySize=auto;html=1;exitX=1;exitY=0.3333333333333333;exitDx=0;exitDy=0;exitPerimeter=0;endArrow=none;endFill=0;" edge="1" parent="1" source="tKD_pDYRvJkfFaJFPjUY-2" target="tKD_pDYRvJkfFaJFPjUY-10">
          <mxGeometry relative="1" as="geometry">
            <Array as="points">
              <mxPoint x="170" y="250" />
              <mxPoint x="170" y="320" />
              <mxPoint x="220" y="320" />
              <mxPoint x="220" y="325" />
            </Array>
          </mxGeometry>
        </mxCell>
        <mxCell id="tKD_pDYRvJkfFaJFPjUY-15" style="edgeStyle=orthogonalEdgeStyle;rounded=0;orthogonalLoop=1;jettySize=auto;html=1;exitX=1;exitY=0.3333333333333333;exitDx=0;exitDy=0;exitPerimeter=0;endArrow=none;endFill=0;" edge="1" parent="1" source="tKD_pDYRvJkfFaJFPjUY-2" target="tKD_pDYRvJkfFaJFPjUY-9">
          <mxGeometry relative="1" as="geometry">
            <Array as="points">
              <mxPoint x="150" y="250" />
              <mxPoint x="150" y="425" />
            </Array>
          </mxGeometry>
        </mxCell>
        <mxCell id="tKD_pDYRvJkfFaJFPjUY-2" value="Usuário" style="shape=umlActor;verticalLabelPosition=bottom;verticalAlign=top;html=1;outlineConnect=0;" vertex="1" parent="1">
          <mxGeometry x="90" y="220" width="40" height="90" as="geometry" />
        </mxCell>
        <mxCell id="tKD_pDYRvJkfFaJFPjUY-5" value="Fazer Login" style="ellipse;whiteSpace=wrap;html=1;" vertex="1" parent="1">
          <mxGeometry x="270" y="110" width="140" height="70" as="geometry" />
        </mxCell>
        <mxCell id="tKD_pDYRvJkfFaJFPjUY-6" value="&lt;font style=&quot;font-size: 19px;&quot;&gt;GameHub&lt;/font&gt;" style="text;html=1;strokeColor=none;fillColor=none;align=center;verticalAlign=middle;whiteSpace=wrap;rounded=0;" vertex="1" parent="1">
          <mxGeometry x="249" y="50" width="330" height="30" as="geometry" />
        </mxCell>
        <mxCell id="tKD_pDYRvJkfFaJFPjUY-7" value="Pesquisar jogos" style="ellipse;whiteSpace=wrap;html=1;" vertex="1" parent="1">
          <mxGeometry x="270" y="200" width="140" height="70" as="geometry" />
        </mxCell>
        <mxCell id="tKD_pDYRvJkfFaJFPjUY-9" value="Criar listas customizadas" style="ellipse;whiteSpace=wrap;html=1;" vertex="1" parent="1">
          <mxGeometry x="270" y="390" width="140" height="70" as="geometry" />
        </mxCell>
        <mxCell id="tKD_pDYRvJkfFaJFPjUY-10" value="Avaliar jogos" style="ellipse;whiteSpace=wrap;html=1;" vertex="1" parent="1">
          <mxGeometry x="270" y="290" width="140" height="70" as="geometry" />
        </mxCell>
      </root>
    </mxGraphModel>
  </diagram>
</mxfile>
